<svg width="239" height="118" viewBox="0 0 239 118" fill="none" xmlns="http://www.w3.org/2000/svg">
<path d="M236.806 42.2029C231.624 59.0943 213.73 68.5867 196.839 63.4049C179.947 58.2231 170.455 40.3292 175.637 23.4379C180.819 6.54654 198.713 -2.94591 215.604 2.23591C232.495 7.41772 241.988 25.3116 236.806 42.2029Z" fill="#F588B9"/>
<path d="M196.272 29.7687L201.972 28.6863C201.989 28.6829 202.004 28.67 202.009 28.6529L202.778 26.1456C202.789 26.1106 202.759 26.0773 202.723 26.0851L193.298 28.1491C193.281 28.1528 193.267 28.1655 193.262 28.1822L192.744 29.868C192.739 29.8858 192.744 29.9051 192.758 29.9175L199.646 36.1215C199.672 36.1449 199.713 36.1331 199.723 36.0995L200.494 33.5883C200.5 33.5702 200.494 33.5506 200.48 33.5383L196.249 29.852C196.219 29.8258 196.233 29.7761 196.272 29.7687Z" fill="#FFEDF5"/>
<path d="M196.272 29.7687L201.972 28.6863C201.989 28.6829 202.004 28.67 202.009 28.6529L202.778 26.1456C202.789 26.1106 202.759 26.0773 202.723 26.0851L193.298 28.1491C193.281 28.1528 193.267 28.1655 193.262 28.1822L192.744 29.868C192.739 29.8858 192.744 29.9051 192.758 29.9175L199.646 36.1215C199.672 36.1449 199.713 36.1331 199.723 36.0995L200.494 33.5883C200.5 33.5702 200.494 33.5506 200.48 33.5383L196.249 29.852C196.219 29.8258 196.233 29.7761 196.272 29.7687Z" fill="#FFEDF5"/>
<path d="M196.272 29.7687L201.972 28.6863C201.989 28.6829 202.004 28.67 202.009 28.6529L202.778 26.1456C202.789 26.1106 202.759 26.0773 202.723 26.0851L193.298 28.1491C193.281 28.1528 193.267 28.1655 193.262 28.1822L192.744 29.868C192.739 29.8858 192.744 29.9051 192.758 29.9175L199.646 36.1215C199.672 36.1449 199.713 36.1331 199.723 36.0995L200.494 33.5883C200.5 33.5702 200.494 33.5506 200.48 33.5383L196.249 29.852C196.219 29.8258 196.233 29.7761 196.272 29.7687Z" fill="#FFEDF5"/>
<path d="M216.026 35.6932L211.895 31.6626C211.883 31.6502 211.878 31.6316 211.883 31.6144L212.653 29.1071C212.663 29.0722 212.708 29.0612 212.733 29.0873L219.409 35.9803C219.421 35.9928 219.425 36.0109 219.42 36.0276L218.903 37.7134C218.897 37.7312 218.882 37.7443 218.864 37.747L209.65 39.1221C209.615 39.1272 209.588 39.0946 209.598 39.061L210.369 36.5498C210.374 36.5317 210.39 36.5185 210.408 36.516L215.998 35.7752C216.038 35.7699 216.054 35.721 216.026 35.6932Z" fill="#FFEDF5"/>
<path d="M216.026 35.6932L211.895 31.6626C211.883 31.6502 211.878 31.6316 211.883 31.6144L212.653 29.1071C212.663 29.0722 212.708 29.0612 212.733 29.0873L219.409 35.9803C219.421 35.9928 219.425 36.0109 219.42 36.0276L218.903 37.7134C218.897 37.7312 218.882 37.7443 218.864 37.747L209.65 39.1221C209.615 39.1272 209.588 39.0946 209.598 39.061L210.369 36.5498C210.374 36.5317 210.39 36.5185 210.408 36.516L215.998 35.7752C216.038 35.7699 216.054 35.721 216.026 35.6932Z" fill="#FFEDF5"/>
<path d="M216.026 35.6932L211.895 31.6626C211.883 31.6502 211.878 31.6316 211.883 31.6144L212.653 29.1071C212.663 29.0722 212.708 29.0612 212.733 29.0873L219.409 35.9803C219.421 35.9928 219.425 36.0109 219.42 36.0276L218.903 37.7134C218.897 37.7312 218.882 37.7443 218.864 37.747L209.65 39.1221C209.615 39.1272 209.588 39.0946 209.598 39.061L210.369 36.5498C210.374 36.5317 210.39 36.5185 210.408 36.516L215.998 35.7752C216.038 35.7699 216.054 35.721 216.026 35.6932Z" fill="#FFEDF5"/>
<path d="M211.373 27.4969L208.872 26.7467C208.853 26.7409 208.832 26.7478 208.82 26.764L200.247 38.1705C200.227 38.1972 200.24 38.2355 200.271 38.245L202.773 38.9952C202.792 39.0009 202.813 38.994 202.825 38.9779L211.397 27.5714C211.417 27.5447 211.405 27.5064 211.373 27.4969Z" fill="#FFEDF5"/>
<rect x="7" y="40" width="212" height="58" rx="29" fill="#F3F3F1"/>
<path d="M60.0072 74V64.0568H66.4741V65.5667H61.8084V68.2662H66.1391V69.7761H61.8084V72.4901H66.513V74H60.0072ZM69.9916 69.6304V74H68.2341V66.5426H69.9139V67.8098H70.0013C70.1729 67.3923 70.4464 67.0605 70.8218 66.8145C71.2005 66.5685 71.6682 66.4455 72.225 66.4455C72.7396 66.4455 73.1879 66.5556 73.5698 66.7757C73.955 66.9958 74.2528 67.3146 74.4631 67.7321C74.6768 68.1496 74.782 68.6562 74.7787 69.2517V74H73.0212V69.5236C73.0212 69.0252 72.8917 68.6351 72.6328 68.3536C72.3771 68.072 72.0227 67.9312 71.5695 67.9312C71.262 67.9312 70.9885 67.9991 70.749 68.1351C70.5127 68.2678 70.3266 68.4604 70.1907 68.7128C70.058 68.9653 69.9916 69.2712 69.9916 69.6304ZM80.2892 66.5426V67.902H76.0022V66.5426H80.2892ZM77.0606 64.7559H78.8181V71.757C78.8181 71.9932 78.8537 72.1745 78.925 72.3007C78.9994 72.4237 79.0965 72.5079 79.2163 72.5532C79.336 72.5985 79.4687 72.6212 79.6144 72.6212C79.7244 72.6212 79.8248 72.6131 79.9154 72.5969C80.0093 72.5807 80.0805 72.5661 80.129 72.5532L80.4252 73.9272C80.3313 73.9595 80.197 73.9951 80.0222 74.034C79.8507 74.0728 79.6403 74.0955 79.391 74.102C78.9508 74.1149 78.5543 74.0486 78.2015 73.9029C77.8487 73.754 77.5688 73.5242 77.3616 73.2135C77.1577 72.9028 77.0574 72.5143 77.0606 72.0483V64.7559ZM84.9804 74.1457C84.2328 74.1457 83.587 73.9903 83.0433 73.6796C82.5027 73.3656 82.0868 72.9222 81.7955 72.3493C81.5042 71.7731 81.3586 71.0951 81.3586 70.315C81.3586 69.5479 81.5042 68.8747 81.7955 68.2953C82.0901 67.7127 82.5011 67.2595 83.0287 66.9359C83.5563 66.609 84.1761 66.4455 84.8882 66.4455C85.3478 66.4455 85.7815 66.52 86.1893 66.6688C86.6004 66.8145 86.9629 67.0411 87.2769 67.3486C87.5941 67.656 87.8433 68.0477 88.0246 68.5235C88.2058 68.996 88.2965 69.5592 88.2965 70.213V70.752H82.1839V69.5673H86.6117C86.6085 69.2307 86.5357 68.9313 86.3933 68.6691C86.2508 68.4037 86.0518 68.195 85.7961 68.0428C85.5436 67.8907 85.2491 67.8146 84.9125 67.8146C84.5532 67.8146 84.2376 67.902 83.9657 68.0768C83.6938 68.2484 83.4818 68.4749 83.3297 68.7565C83.1808 69.0349 83.1048 69.3408 83.1015 69.6741V70.7083C83.1015 71.142 83.1808 71.5142 83.3394 71.8249C83.498 72.1324 83.7197 72.3687 84.0046 72.5338C84.2894 72.6956 84.6228 72.7765 85.0047 72.7765C85.2604 72.7765 85.4918 72.7409 85.699 72.6697C85.9061 72.5953 86.0858 72.4868 86.2379 72.3444C86.39 72.202 86.5049 72.0256 86.5826 71.8152L88.2236 71.9997C88.12 72.4334 87.9226 72.8121 87.6313 73.1358C87.3432 73.4562 86.9743 73.7055 86.5243 73.8835C86.0744 74.0583 85.5598 74.1457 84.9804 74.1457ZM89.7833 74V66.5426H91.4874V67.7855H91.5651C91.7011 67.355 91.9341 67.0233 92.2643 66.7902C92.5976 66.5539 92.978 66.4358 93.4052 66.4358C93.5023 66.4358 93.6107 66.4407 93.7305 66.4504C93.8535 66.4568 93.9554 66.4682 94.0364 66.4844V68.1011C93.9619 68.0752 93.8438 68.0525 93.6819 68.0331C93.5233 68.0105 93.3696 67.9991 93.2207 67.9991C92.9003 67.9991 92.6122 68.0687 92.3565 68.2079C92.104 68.3438 91.905 68.5332 91.7593 68.7759C91.6137 69.0187 91.5408 69.2987 91.5408 69.6159V74H89.7833ZM106.844 64.0568V74H105.242L100.557 67.2272H100.474V74H98.6729V64.0568H100.285L104.965 70.8345H105.053V64.0568H106.844ZM112.03 74.1457C111.283 74.1457 110.637 73.9903 110.093 73.6796C109.553 73.3656 109.137 72.9222 108.846 72.3493C108.554 71.7731 108.409 71.0951 108.409 70.315C108.409 69.5479 108.554 68.8747 108.846 68.2953C109.14 67.7127 109.551 67.2595 110.079 66.9359C110.606 66.609 111.226 66.4455 111.938 66.4455C112.398 66.4455 112.832 66.52 113.239 66.6688C113.65 66.8145 114.013 67.0411 114.327 67.3486C114.644 67.656 114.893 68.0477 115.075 68.5235C115.256 68.996 115.346 69.5592 115.346 70.213V70.752H109.234V69.5673H113.662C113.659 69.2307 113.586 68.9313 113.443 68.6691C113.301 68.4037 113.102 68.195 112.846 68.0428C112.594 67.8907 112.299 67.8146 111.962 67.8146C111.603 67.8146 111.288 67.902 111.016 68.0768C110.744 68.2484 110.532 68.4749 110.38 68.7565C110.231 69.0349 110.155 69.3408 110.152 69.6741V70.7083C110.152 71.142 110.231 71.5142 110.389 71.8249C110.548 72.1324 110.77 72.3687 111.055 72.5338C111.339 72.6956 111.673 72.7765 112.055 72.7765C112.31 72.7765 112.542 72.7409 112.749 72.6697C112.956 72.5953 113.136 72.4868 113.288 72.3444C113.44 72.202 113.555 72.0256 113.633 71.8152L115.274 71.9997C115.17 72.4334 114.973 72.8121 114.681 73.1358C114.393 73.4562 114.024 73.7055 113.574 73.8835C113.124 74.0583 112.61 74.1457 112.03 74.1457ZM118.11 66.5426L119.615 69.2954L121.145 66.5426H123.004L120.756 70.2713L123.043 74H121.193L119.615 71.3151L118.052 74H116.188L118.46 70.2713L116.246 66.5426H118.11ZM128.087 66.5426V67.902H123.8V66.5426H128.087ZM124.859 64.7559H126.616V71.757C126.616 71.9932 126.652 72.1745 126.723 72.3007C126.798 72.4237 126.895 72.5079 127.014 72.5532C127.134 72.5985 127.267 72.6212 127.413 72.6212C127.523 72.6212 127.623 72.6131 127.714 72.5969C127.807 72.5807 127.879 72.5661 127.927 72.5532L128.223 73.9272C128.129 73.9595 127.995 73.9951 127.82 74.034C127.649 74.0728 127.438 74.0955 127.189 74.102C126.749 74.1149 126.353 74.0486 126 73.9029C125.647 73.754 125.367 73.5242 125.16 73.2135C124.956 72.9028 124.856 72.5143 124.859 72.0483V64.7559ZM133.026 74V64.0568H134.827V72.4901H139.207V74H133.026ZM143.994 74.1457C143.246 74.1457 142.6 73.9903 142.057 73.6796C141.516 73.3656 141.1 72.9222 140.809 72.3493C140.518 71.7731 140.372 71.0951 140.372 70.315C140.372 69.5479 140.518 68.8747 140.809 68.2953C141.103 67.7127 141.514 67.2595 142.042 66.9359C142.57 66.609 143.189 66.4455 143.902 66.4455C144.361 66.4455 144.795 66.52 145.203 66.6688C145.614 66.8145 145.976 67.0411 146.29 67.3486C146.607 67.656 146.857 68.0477 147.038 68.5235C147.219 68.996 147.31 69.5592 147.31 70.213V70.752H141.197V69.5673H145.625C145.622 69.2307 145.549 68.9313 145.407 68.6691C145.264 68.4037 145.065 68.195 144.809 68.0428C144.557 67.8907 144.262 67.8146 143.926 67.8146C143.567 67.8146 143.251 67.902 142.979 68.0768C142.707 68.2484 142.495 68.4749 142.343 68.7565C142.194 69.0349 142.118 69.3408 142.115 69.6741V70.7083C142.115 71.142 142.194 71.5142 142.353 71.8249C142.511 72.1324 142.733 72.3687 143.018 72.5338C143.303 72.6956 143.636 72.7765 144.018 72.7765C144.274 72.7765 144.505 72.7409 144.712 72.6697C144.92 72.5953 145.099 72.4868 145.251 72.3444C145.403 72.202 145.518 72.0256 145.596 71.8152L147.237 71.9997C147.133 72.4334 146.936 72.8121 146.645 73.1358C146.357 73.4562 145.988 73.7055 145.538 73.8835C145.088 74.0583 144.573 74.1457 143.994 74.1457ZM155.244 66.5426L152.588 74H150.646L147.991 66.5426H149.865L151.579 72.0822H151.656L153.375 66.5426H155.244ZM159.508 74.1457C158.76 74.1457 158.115 73.9903 157.571 73.6796C157.03 73.3656 156.615 72.9222 156.323 72.3493C156.032 71.7731 155.886 71.0951 155.886 70.315C155.886 69.5479 156.032 68.8747 156.323 68.2953C156.618 67.7127 157.029 67.2595 157.556 66.9359C158.084 66.609 158.704 66.4455 159.416 66.4455C159.876 66.4455 160.309 66.52 160.717 66.6688C161.128 66.8145 161.491 67.0411 161.805 67.3486C162.122 67.656 162.371 68.0477 162.552 68.5235C162.734 68.996 162.824 69.5592 162.824 70.213V70.752H156.712V69.5673H161.139C161.136 69.2307 161.063 68.9313 160.921 68.6691C160.779 68.4037 160.58 68.195 160.324 68.0428C160.071 67.8907 159.777 67.8146 159.44 67.8146C159.081 67.8146 158.765 67.902 158.493 68.0768C158.222 68.2484 158.01 68.4749 157.857 68.7565C157.709 69.0349 157.633 69.3408 157.629 69.6741V70.7083C157.629 71.142 157.709 71.5142 157.867 71.8249C158.026 72.1324 158.247 72.3687 158.532 72.5338C158.817 72.6956 159.151 72.7765 159.532 72.7765C159.788 72.7765 160.02 72.7409 160.227 72.6697C160.434 72.5953 160.614 72.4868 160.766 72.3444C160.918 72.202 161.033 72.0256 161.11 71.8152L162.751 71.9997C162.648 72.4334 162.45 72.8121 162.159 73.1358C161.871 73.4562 161.502 73.7055 161.052 73.8835C160.602 74.0583 160.088 74.1457 159.508 74.1457ZM166.069 64.0568V74H164.311V64.0568H166.069Z" fill="#262625"/>
<path d="M29.0916 35.8711C31.9242 43.6536 27.9115 52.2589 20.1289 55.0916C12.3464 57.9242 3.74106 53.9115 0.908446 46.1289C-1.92417 38.3464 2.08854 29.7411 9.87109 26.9084C17.6536 24.0758 26.2589 28.0885 29.0916 35.8711Z" fill="#A2B87E"/>
<path d="M11.804 46.0533C11.6118 45.9657 11.5336 45.7338 11.6335 45.5477L13.2983 42.4482L9.75652 43.0035C9.54861 43.0361 9.35619 42.8868 9.33606 42.6773L9.14825 40.7231C9.12789 40.5113 9.2921 40.3269 9.50488 40.3227L13.0723 40.2523L10.7837 37.5148C10.6472 37.3515 10.6785 37.1066 10.8517 36.9829L12.4493 35.8419C12.6205 35.7195 12.8594 35.7667 12.9713 35.945L14.8773 38.9814L16.1228 35.691C16.1976 35.4934 16.4239 35.4002 16.6161 35.4878L18.4111 36.3053C18.6037 36.393 18.6818 36.6255 18.5812 36.8117L16.9084 39.9065L20.4502 39.3513C20.6582 39.3187 20.8506 39.4679 20.8707 39.6774L21.0586 41.6321C21.0789 41.8438 20.9149 42.0281 20.7023 42.0325L17.1438 42.1067L19.4236 44.84C19.5599 45.0033 19.5284 45.248 19.3554 45.3716L17.7575 46.5129C17.5862 46.6352 17.3473 46.588 17.2354 46.4098L15.3295 43.3733L14.0927 46.6667C14.0183 46.8648 13.7916 46.9585 13.599 46.8708L11.804 46.0533Z" fill="#ECFFCE"/>
<path d="M205.229 91.8838C208.817 101.742 203.734 112.642 193.876 116.23C184.019 119.818 173.119 114.735 169.531 104.877C165.943 95.0191 171.025 84.1191 180.883 80.5311C190.741 76.9431 201.641 82.0259 205.229 91.8838Z" fill="#6B93C0"/>
<path d="M195.529 93.9137L189.042 90.8892L182.243 96.8877L185.53 98.4208L180.315 103.586L191.999 98.6863L187.878 96.7648L195.529 93.9137Z" fill="#BADAFF"/>
</svg>
